<svg width="33" height="22" viewBox="0 0 33 22" fill="none" xmlns="http://www.w3.org/2000/svg">
<g id="Icon/Big/Daily">
<path id="Combined Shape" fill-rule="evenodd" clip-rule="evenodd" d="M9.33877 0.70771C7.98403 1.95159 0.622582 8.90353 0.622582 13.0811C0.622582 17.6714 4.53273 21.4054 9.33877 21.4054C14.1448 21.4054 18.055 17.6714 18.055 13.0811C18.055 8.90353 10.6935 1.95159 9.33877 0.70771ZM9.33878 22C4.18937 22 0 17.999 0 13.0811C0 8.24562 8.75417 0.41101 9.12679 0.0798237C9.24632 -0.0266079 9.43123 -0.0266079 9.55077 0.0798237C9.92338 0.41101 18.6776 8.24562 18.6776 13.0811C18.6776 17.999 14.4882 22 9.33878 22ZM16.1872 22C15.9005 22 15.6094 21.9872 15.3227 21.9622C15.1515 21.9471 15.0255 21.8026 15.0413 21.6391C15.0569 21.4756 15.2076 21.3552 15.3797 21.37C15.6474 21.3935 15.9192 21.4054 16.1872 21.4054C20.9932 21.4054 24.9034 17.6711 24.9034 13.0812C24.9034 8.90327 17.541 1.95073 16.1869 0.70774C15.827 1.03714 15.0423 1.76938 14.0922 2.73826C13.9742 2.85778 13.7772 2.86402 13.652 2.75194C13.5266 2.63986 13.52 2.45167 13.6377 2.33186C14.9415 1.00244 15.9397 0.111518 15.9744 0.0806166L15.9752 0.0798534C16.0947 -0.0265782 16.2797 -0.0265782 16.3992 0.0798534C16.7718 0.41104 25.526 8.24565 25.526 13.0812C25.526 17.999 21.3366 22 16.1872 22ZM22.4825 21.9622C22.7692 21.9872 23.0602 22 23.3469 22C28.4963 22 32.6857 17.999 32.6857 13.0812C32.6857 8.24565 23.9315 0.41104 23.5589 0.0798534C23.4394 -0.0265782 23.2545 -0.0265782 23.1349 0.0798534L23.1341 0.0806429C23.0989 0.11202 22.1009 1.00281 20.7974 2.33186C20.6798 2.45167 20.6863 2.63986 20.8118 2.75194C20.9372 2.86402 21.1336 2.85778 21.2519 2.73826C22.202 1.76938 22.9868 1.03714 23.3466 0.70774C24.7007 1.95073 32.0631 8.90327 32.0631 13.0812C32.0631 17.6711 28.153 21.4054 23.3469 21.4054C23.0789 21.4054 22.8072 21.3935 22.5394 21.37C22.3664 21.3552 22.2166 21.4756 22.2011 21.6391C22.1852 21.8026 22.3113 21.9471 22.4825 21.9622Z" fill="#6E6E6E"/>
</g>
</svg>
