<svg width="22" height="22" viewBox="0 0 22 22" fill="none" xmlns="http://www.w3.org/2000/svg">
<g id="Icon/Big/NoSun">
<path id="Combined Shape" fill-rule="evenodd" clip-rule="evenodd" d="M18.3103 16.2342L17.7855 15.867C18.7471 14.4513 19.2553 12.79 19.2553 11.0636C19.2553 6.39022 15.5086 2.5881 10.903 2.5881C9.35053 2.5881 7.8354 3.02325 6.52145 3.84663L6.18635 3.29598C7.60105 2.40983 9.23224 1.94104 10.903 1.94104C15.86 1.94104 19.893 6.03336 19.893 11.0636C19.893 12.922 19.3459 14.7101 18.3103 16.2342ZM10.903 20.1856C5.94598 20.1856 1.91296 16.0936 1.91296 11.0634C1.91296 9.25843 2.43172 7.51299 3.41311 6.01635L3.94398 6.37482C3.03241 7.7647 2.55064 9.38623 2.55064 11.0634C2.55064 15.7368 6.29766 19.5386 10.903 19.5386C12.6474 19.5386 14.3178 18.9989 15.7347 17.9776L16.1039 18.5052C14.5789 19.6046 12.7803 20.1856 10.903 20.1856ZM19.0653 19.8033C19.1275 19.8664 19.2091 19.8981 19.2908 19.8981C19.3724 19.8981 19.454 19.8664 19.5162 19.8033C19.6409 19.6768 19.6409 19.4724 19.5162 19.3459L2.74071 2.32368C2.61604 2.19718 2.41421 2.19718 2.28987 2.32368C2.1652 2.44986 2.1652 2.65465 2.28987 2.78115L19.0653 19.8033Z" fill="#6E6E6E"/>
</g>
</svg>
