<svg width="22" height="23" viewBox="0 0 22 23" fill="none" xmlns="http://www.w3.org/2000/svg">
<g id="Icon/Big/Toxic">
<path id="Combined Shape" fill-rule="evenodd" clip-rule="evenodd" d="M8.98923 0.628571C4.37929 0.628571 0.6286 4.37926 0.6286 8.98951V9.86983C0.6286 13.2757 2.67931 16.3143 5.85297 17.611C5.97114 17.6591 6.04846 17.7744 6.04846 17.902V20.0228C6.04846 20.9361 6.79143 21.6794 7.70506 21.6794H8.37615V19.538C8.37615 19.3642 8.51695 19.2238 8.69043 19.2238C8.86392 19.2238 9.00472 19.3642 9.00472 19.538V21.6794H12.3178V19.538C12.3178 19.3642 12.4586 19.2238 12.632 19.2238C12.8055 19.2238 12.9463 19.3642 12.9463 19.538V21.6794H14.1102C15.0235 21.6794 15.7668 20.9361 15.7668 20.0228V17.902C15.7668 17.7744 15.8441 17.6591 15.9623 17.611C19.1359 16.3143 21.1867 13.2757 21.1867 9.86983V8.98951C21.1867 4.37926 17.436 0.628571 12.826 0.628571H8.98923ZM12.6419 22.308H14.1103C15.3702 22.308 16.3954 21.2831 16.3954 20.0228V18.1104C19.6951 16.6735 21.8153 13.4618 21.8153 9.86983V8.98951C21.8153 4.0326 17.7827 0 12.8261 0H8.98929C4.03269 0 9.15527e-05 4.0326 9.15527e-05 8.98951V9.86983C9.15527e-05 13.4618 2.12026 16.6735 5.41995 18.1104V20.0228C5.41995 21.2831 6.44483 22.308 7.70512 22.308H8.6806L8.69043 22.3082L8.70026 22.308H12.6222L12.632 22.3082L12.6419 22.308ZM6.71956 9.49733C5.53439 9.49733 4.57016 10.4616 4.57016 11.6467C4.57016 12.8316 5.53439 13.7961 6.71956 13.7961C7.90473 13.7961 8.86864 12.8316 8.86864 11.6467C8.86864 10.4616 7.90473 9.49733 6.71956 9.49733ZM6.71956 14.4247C5.18773 14.4247 3.94159 13.1786 3.94159 11.6467C3.94159 10.1149 5.18773 8.86876 6.71956 8.86876C8.25139 8.86876 9.49722 10.1149 9.49722 11.6467C9.49722 13.1786 8.25139 14.4247 6.71956 14.4247ZM12.9463 11.6467C12.9463 10.4616 13.9105 9.49733 15.0957 9.49733C16.2808 9.49733 17.2448 10.4616 17.2448 11.6467C17.2448 12.8316 16.2808 13.7961 15.0957 13.7961C13.9105 13.7961 12.9463 12.8316 12.9463 11.6467ZM12.3177 11.6467C12.3177 13.1786 13.5638 14.4247 15.0957 14.4247C16.6275 14.4247 17.8733 13.1786 17.8733 11.6467C17.8733 10.1149 16.6275 8.86876 15.0957 8.86876C13.5638 8.86876 12.3177 10.1149 12.3177 11.6467Z" fill="#6E6E6E"/>
</g>
</svg>
